<?xml version="1.0" standalone="no"?>
<!DOCTYPE svg PUBLIC "-//W3C//DTD SVG 20010904//EN"
 "http://www.w3.org/TR/2001/REC-SVG-20010904/DTD/svg10.dtd">
<svg version="1.0" xmlns="http://www.w3.org/2000/svg"
 width="583.000000pt" height="583.000000pt" viewBox="0 0 583.000000 583.000000"
 preserveAspectRatio="xMidYMid meet">
<metadata>
Created by potrace 1.11, written by Peter Selinger 2001-2013
</metadata>
<g transform="translate(0.000000,583.000000) scale(0.100000,-0.100000)"
fill="#000000" stroke="none">
<path d="M4625 4596 c-72 -21 -136 -60 -187 -114 -132 -141 -143 -354 -27
-509 157 -209 474 -208 629 2 61 82 73 124 74 240 0 87 -3 107 -26 158 -46 98
-133 177 -243 218 -48 18 -164 20 -220 5z"/>
<path d="M1907 4484 c-1 -1 -27 -5 -57 -9 -87 -11 -91 -12 -180 -35 -542 -139
-970 -540 -1149 -1077 -25 -77 -44 -158 -68 -293 -2 -14 -6 -97 -8 -185 -8
-389 111 -744 353 -1050 52 -65 172 -188 238 -244 44 -37 234 -165 264 -178 8
-3 51 -23 95 -43 142 -67 326 -119 479 -138 119 -14 374 -7 476 13 193 37 296
72 465 157 79 40 207 121 275 175 69 55 219 209 275 283 151 198 255 428 301
665 27 140 81 240 180 338 188 184 484 219 721 85 89 -50 181 -149 231 -249
41 -81 75 -208 67 -251 -4 -17 9 -18 262 -18 l265 0 -6 76 c-22 272 -131 516
-316 704 -85 86 -102 100 -190 160 -69 47 -172 96 -265 128 -472 159 -1003
-21 -1283 -435 -75 -111 -147 -275 -168 -383 -32 -164 -56 -236 -112 -340 -74
-138 -184 -271 -289 -351 -32 -24 -60 -46 -63 -50 -13 -14 -155 -90 -215 -113
-80 -33 -193 -62 -272 -72 -81 -10 -211 -11 -253 -3 -19 4 -55 10 -80 13 -138
17 -310 88 -448 185 -234 166 -392 415 -453 716 -18 93 -14 382 6 415 2 4 6
20 9 36 17 97 86 250 165 368 61 92 198 229 291 292 163 109 350 173 554 189
32 2 61 7 64 9 4 4 7 454 3 504 -1 10 -21 12 -81 11 -44 -2 -81 -4 -83 -5z"/>
</g>
</svg>
